<?xml version="1.0" encoding="utf-8"?>
<!-- Generator: Adobe Illustrator 22.1.0, SVG Export Plug-In . SVG Version: 6.00 Build 0)  -->
<svg version="1.1" baseProfile="tiny" id="Layer_1" xmlns="http://www.w3.org/2000/svg" xmlns:xlink="http://www.w3.org/1999/xlink"
	 x="0px" y="0px" viewBox="0 0 33.1 10" xml:space="preserve">
<path fill="#FFFFFF" d="M30.3,0.6C30.3,0.6,30.2,0.6,30.3,0.6L16.6,6c0,0-0.1,0-0.1,0L2.9,0.6c0,0-0.1,0-0.1,0L0.8,3.1
	c0,0,0,0,0,0.1l11.5,4.5c0,0,0.1,0,0.1,0l4.2,1.7c0,0,0.1,0,0.1,0l4.2-1.7c0,0,0.1,0,0.1,0l11.5-4.5c0,0,0,0,0-0.1L30.3,0.6z"/>
</svg>
