<?xml version="1.0" encoding="utf-8"?>
<!-- Generator: Adobe Illustrator 22.1.0, SVG Export Plug-In . SVG Version: 6.00 Build 0)  -->
<svg version="1.1" id="Layer_1" xmlns="http://www.w3.org/2000/svg" xmlns:xlink="http://www.w3.org/1999/xlink" x="0px" y="0px"
	 viewBox="0 0 32 32" enable-background="new 0 0 32 32" xml:space="preserve">
<g>
	<g>
		<radialGradient id="SVGID_1_" cx="18.0012" cy="16.0413" r="10.4292" gradientUnits="userSpaceOnUse">
			<stop  offset="0" style="stop-color:#1F5B99"/>
			<stop  offset="1" style="stop-color:#153C66"/>
		</radialGradient>
		<path fill="url(#SVGID_1_)" d="M17.8,6.1c0.1-0.2,0.3-0.2,0.4,0l2.9,5.9c0.1,0.2,0.4,0.5,0.7,0.5l6.6,1c0.3,0,0.3,0.2,0.1,0.4
			l-4.7,4.6c-0.2,0.2-0.3,0.6-0.3,0.8l1.1,6.5c0,0.3-0.1,0.4-0.4,0.3l-5.9-3.1c-0.2-0.1-0.6-0.1-0.9,0l-5.9,3.1
			c-0.2,0.1-0.4,0-0.4-0.3l1.1-6.5c0-0.3-0.1-0.6-0.3-0.8l-4.7-4.6c-0.2-0.2-0.1-0.4,0.1-0.4l6.6-1c0.3,0,0.6-0.3,0.7-0.5L17.8,6.1z
			"/>
	</g>
</g>
<g>
	<g>
		<path fill="#FFD488" d="M13.8,6.1c0.1-0.2,0.3-0.2,0.4,0l2.9,5.9c0.1,0.2,0.4,0.5,0.7,0.5l6.6,1c0.3,0,0.3,0.2,0.1,0.4l-4.7,4.6
			c-0.2,0.2-0.3,0.6-0.3,0.8l1.1,6.5c0,0.3-0.1,0.4-0.4,0.3l-5.9-3.1c-0.2-0.1-0.6-0.1-0.9,0l-5.9,3.1c-0.2,0.1-0.4,0-0.4-0.3
			l1.1-6.5c0-0.3-0.1-0.6-0.3-0.8l-4.7-4.6c-0.2-0.2-0.1-0.4,0.1-0.4l6.6-1c0.3,0,0.6-0.3,0.7-0.5L13.8,6.1z"/>
	</g>
</g>
</svg>
